<svg width="24" height="28" viewBox="0 0 24 28" fill="none" xmlns="http://www.w3.org/2000/svg">
<mask id="path-1-outside-1_253_64" maskUnits="userSpaceOnUse" x="0" y="0" width="24" height="28" fill="black">
<rect fill="white" width="24" height="28"/>
<path fill-rule="evenodd" clip-rule="evenodd" d="M22 22.4328C21.855 22.4381 21.7093 22.4407 21.5631 22.4407C15.0204 22.4407 9.71656 17.1369 9.71656 10.5942C9.71656 7.2108 11.1349 4.15867 13.4096 2C7.06933 2.22988 2 7.44223 2 13.8386C2 20.3812 7.30386 25.6851 13.8465 25.6851C17.0057 25.6851 19.8761 24.4484 22 22.4328Z"/>
</mask>
<path d="M22 22.4328L23.3767 23.8835C23.98 23.311 24.166 22.4249 23.8439 21.6581C23.5217 20.8914 22.7587 20.404 21.9275 20.4341L22 22.4328ZM13.4096 2L14.7863 3.4507C15.3896 2.87818 15.5756 1.99208 15.2534 1.22532C14.9313 0.458552 14.1682 -0.0288215 13.3371 0.00131333L13.4096 2ZM21.9275 20.4341C21.8067 20.4385 21.6852 20.4407 21.5631 20.4407V24.4407C21.7335 24.4407 21.9033 24.4376 22.0725 24.4315L21.9275 20.4341ZM21.5631 20.4407C16.125 20.4407 11.7166 16.0323 11.7166 10.5942H7.71656C7.71656 18.2414 13.9158 24.4407 21.5631 24.4407V20.4407ZM11.7166 10.5942C11.7166 7.78181 12.893 5.24746 14.7863 3.4507L12.0328 0.549299C9.37685 3.06987 7.71656 6.63979 7.71656 10.5942H11.7166ZM4 13.8386C4 8.52253 8.21353 4.18971 13.482 3.99869L13.3371 0.00131333C5.92514 0.270049 0 6.36193 0 13.8386H4ZM13.8465 23.6851C8.40843 23.6851 4 19.2767 4 13.8386H0C0 21.4858 6.19929 27.6851 13.8465 27.6851V23.6851ZM20.6232 20.9821C18.8561 22.6592 16.4733 23.6851 13.8465 23.6851V27.6851C17.5382 27.6851 20.8961 26.2377 23.3767 23.8835L20.6232 20.9821Z" fill="#444555" mask="url(#path-1-outside-1_253_64)"/>
</svg>
