<svg width="28" height="28" viewBox="0 0 28 28" fill="none" xmlns="http://www.w3.org/2000/svg">
<path d="M0.581227 9.22803H6.2406V27.4374H0.581227V9.22803ZM3.41248 0.165527C4.06158 0.165528 4.6961 0.358049 5.23577 0.718736C5.77543 1.07942 6.196 1.59207 6.44426 2.19182C6.69251 2.79157 6.75731 3.45148 6.63045 4.08807C6.50359 4.72465 6.19077 5.30931 5.73156 5.76808C5.27236 6.22684 4.68741 6.53911 4.0507 6.66536C3.41399 6.79162 2.75415 6.72619 2.15463 6.47736C1.55511 6.22853 1.04287 5.80748 0.682698 5.26747C0.322525 4.72746 0.130609 4.09276 0.131227 3.44365C0.132055 2.57395 0.478123 1.74016 1.09339 1.12548C1.70865 0.5108 2.54278 0.165527 3.41248 0.165527ZM9.7906 9.22803H15.2156V11.728H15.2906C16.0469 10.2968 17.8906 8.78741 20.6437 8.78741C26.375 8.77491 27.4375 12.5468 27.4375 17.4374V27.4374H21.7781V18.578C21.7781 16.4687 21.7406 13.753 18.8375 13.753C15.9344 13.753 15.4406 16.053 15.4406 18.4405V27.4374H9.7906V9.22803Z" fill="#0076B2"/>
</svg>
