<svg width="51" height="58" viewBox="0 0 51 58" fill="none" xmlns="http://www.w3.org/2000/svg">
<path d="M48.8614 13.2191L28.1909 1.21679C26.8873 0.474287 25.19 0.474287 23.8761 1.21679L2.98484 13.2191C1.63953 13.993 0.6875 15.4476 0.6875 17.0034V40.9762C0.6875 42.532 1.66438 43.9869 3.00969 44.7651L8.52922 47.9001C11.1673 49.1994 12.0997 49.1995 13.3002 49.1995C17.2063 49.1995 19.4375 46.8374 19.4375 42.7176V19.0504C19.4375 18.7162 19.2636 18.2188 18.9355 18.2188H16.2997C15.9659 18.2188 15.2188 18.7162 15.2188 19.0499V42.7171C15.2188 44.5434 13.5669 46.3607 10.4797 44.8171L4.77641 41.5298C4.57766 41.422 4.4375 41.2049 4.4375 40.9762V17.0034C4.4375 16.7774 4.69766 16.5505 4.89781 16.4348L25.7216 4.45304C25.9161 4.34288 26.202 4.34288 26.3961 4.45304L46.9658 16.4319C47.1627 16.5505 47.0933 16.7704 47.0933 17.0034V40.9762C47.0933 41.2049 47.1791 41.4276 46.9845 41.5377L26.3192 53.5265C26.142 53.6329 25.9222 53.6329 25.7281 53.5265L20.428 50.3629C20.2681 50.2701 20.0783 50.2368 19.925 50.3226C18.4503 51.1584 18.1784 51.2694 16.7952 51.749C16.4548 51.8676 15.9528 52.0734 16.9873 52.6532L23.9239 56.7566C24.5861 57.1391 25.3374 57.3406 26.1022 57.3407C26.8719 57.3407 27.6256 57.141 28.2898 56.7566L48.8609 44.7651C50.2062 43.9813 50.8438 42.532 50.8438 40.9762V17.0034C50.8438 15.4476 50.2063 13.9968 48.8614 13.2191ZM32.5203 37.1774C27.0238 37.1774 25.813 35.661 25.4094 32.9277C25.3625 32.6334 25.1127 32.2813 24.8131 32.2813H22.1267C21.7944 32.2813 21.5272 32.6844 21.5272 33.0154C21.5272 36.5151 23.4298 40.7554 32.5208 40.7554C39.1016 40.7554 42.8745 38.1984 42.8745 33.673C42.8745 29.1862 39.8431 28.0087 33.4611 27.164C27.0102 26.3113 26.3548 25.8805 26.3548 24.3693C26.3548 23.1234 26.9098 21.4616 31.6864 21.4616C35.9544 21.4616 37.5275 22.3776 38.1748 25.2543C38.2302 25.5248 38.4772 25.7188 38.7561 25.7188H41.4533C41.6192 25.7188 41.7777 25.6518 41.8939 25.5332C42.0064 25.4057 42.0659 25.2459 42.0509 25.0743C41.6333 20.1205 38.3422 17.8119 31.6859 17.8119C25.7652 17.8119 22.2331 20.3123 22.2331 24.5034C22.2331 29.0493 25.7473 30.3055 31.4309 30.8676C38.2302 31.5341 38.7589 32.5279 38.7589 33.8652C38.7589 36.1879 36.8942 37.1774 32.5203 37.1774Z" fill="#83CD29"/>
</svg>
