<svg width="60" height="45" viewBox="0 0 60 45" fill="none" xmlns="http://www.w3.org/2000/svg">
<path fill-rule="evenodd" clip-rule="evenodd" d="M0.571411 19.3231C0.571411 19.6527 0.668442 19.8702 0.722817 20.0816C1.07719 21.4564 1.83891 22.6362 2.74266 23.7125C4.02985 25.2462 5.60625 26.4809 7.2211 27.642C8.62172 28.6489 10.0509 29.6333 11.4572 30.6327C11.6986 30.8042 11.9269 31.0016 12.1889 31.212C11.9634 31.3339 11.7759 31.4413 11.5809 31.5402C9.72516 32.4814 7.93969 33.5366 6.29391 34.8148C5.30204 35.5855 4.34297 36.4044 3.66563 37.4745C2.57579 39.1958 2.19 41.0295 3.00235 42.9875C3.23954 43.5594 3.60141 44.0534 4.11188 44.4186C4.27735 44.5367 4.46297 44.6539 4.65657 44.6998C5.1525 44.8166 5.65782 44.893 6.15985 44.9853L7.58157 44.9844C9.15375 44.8442 10.5848 44.3056 11.8781 43.4131C13.8994 42.0181 15.2611 40.1478 15.8466 37.7473C16.2722 36.0027 16.2895 34.2561 15.788 32.5194C15.74 32.3585 15.6846 32.1999 15.622 32.0441C15.5611 31.888 15.4894 31.7361 15.405 31.5416L18.6281 29.6881L18.6764 29.7294C18.6178 29.9211 18.5555 30.1123 18.5025 30.3059C18.1195 31.7047 17.865 33.1278 17.9564 34.5795C18.0539 36.1264 18.4856 37.5744 19.3913 38.8667C20.1234 39.912 21.8681 39.9509 22.6463 38.9019C22.9223 38.5292 23.19 38.1397 23.3911 37.7239C23.9166 36.6388 24.4031 35.5344 24.9052 34.4375L24.9928 34.2369C24.9567 34.7562 24.9145 35.2123 24.8953 35.6689C24.8653 36.3819 24.907 37.0906 25.1508 37.7689C25.3594 38.3492 25.7142 38.7828 26.3789 38.8592C26.8336 38.9113 27.1959 38.7031 27.5302 38.4392C28.0479 38.0301 28.4771 37.5199 28.7916 36.9397C29.6827 35.3033 30.5977 33.6767 31.4053 31.9991C32.2791 30.1845 33.0431 28.317 33.8545 26.4716L33.9886 26.1444C34.1803 26.8977 34.3139 27.6355 34.56 28.3339C34.8459 29.1444 35.1998 29.9356 35.5852 30.7048C35.7675 31.0681 35.7464 31.3039 35.4938 31.6086C34.4362 32.8836 33.397 34.1741 32.3569 35.4631C32.1267 35.7477 31.8975 36.0373 31.7058 36.3481C31.5895 36.5444 31.513 36.7617 31.4808 36.9875C31.4485 37.1954 31.498 37.4078 31.6189 37.58C31.7397 37.7522 31.9226 37.871 32.1291 37.9114C32.5458 38.0012 32.9732 38.0316 33.3984 38.0019C34.8502 37.895 36.1683 37.3855 37.3336 36.522C38.8434 35.4036 39.3281 33.8773 38.9625 32.0684C38.8636 31.5777 38.6887 31.1005 38.5186 30.6275C38.4422 30.4142 38.437 30.2647 38.5762 30.0659C39.7833 28.3423 40.8145 26.5137 41.7736 24.643C41.8116 24.5694 41.8505 24.4958 41.917 24.417C42.2278 26.0342 42.6956 27.5928 43.5337 29.007C43.1063 29.4191 42.683 29.7927 42.3 30.2042C41.4567 31.1108 40.7255 32.0952 40.3439 33.2956C40.1798 33.8131 40.0537 34.3391 40.1269 34.8917C40.2403 35.75 40.9434 36.3078 41.7877 36.1123C43.5942 35.6942 45.1538 34.843 46.2933 33.335C47.0602 32.3197 47.13 31.1872 46.8089 30.0008C46.7208 29.6783 46.6162 29.3609 46.5037 28.9911C46.9495 28.8528 47.3841 28.6869 47.8336 28.5842C50.1675 28.0517 52.4761 28.1445 54.7252 28.9873C56.0381 29.4795 57.0989 30.3031 57.728 31.5988C58.4962 33.1827 58.0716 34.6855 56.5786 35.6867C56.4394 35.78 56.28 35.8536 56.1647 35.9703C56.1277 36.0131 56.1001 36.0632 56.0836 36.1172C56.067 36.1713 56.0619 36.2282 56.0686 36.2844C56.0784 36.342 56.2308 36.4142 56.3184 36.4133C56.8092 36.4095 57.2072 36.1522 57.5892 35.8878C58.5464 35.2255 59.2448 34.3344 59.3953 33.1611L59.4248 33.073L59.3887 32.3089C59.3742 32.2648 59.3995 32.2212 59.3962 32.188C59.1928 30.4794 58.2802 29.1542 56.9527 28.1155C55.4152 26.9131 53.5997 26.4181 51.6797 26.3398C50.1225 26.2728 48.5673 26.5122 47.1023 27.0444C46.6819 27.1967 46.2652 27.3772 45.8423 27.5473C45.7856 27.4447 45.7247 27.3463 45.6745 27.2445C45.2405 26.3558 44.7145 25.5064 44.5983 24.4873C44.5158 23.7636 44.4145 23.0408 44.5866 22.325C44.752 21.6364 44.9677 20.9595 45.1706 20.2803C45.2752 19.9306 45.2016 19.7347 44.8678 19.5772C44.7515 19.5192 44.6274 19.4785 44.4994 19.4562C43.6791 19.3372 42.87 19.4052 42.0755 19.6363C41.7942 19.7183 41.5898 19.8758 41.5275 20.187C41.4919 20.3656 41.4192 20.5367 41.3686 20.713C41.1609 21.4456 41.0137 22.1923 40.6781 22.8903C39.8372 24.6411 38.8772 26.3258 37.8947 27.9983C37.7883 28.1788 37.6762 28.3559 37.5422 28.5748C37.1972 27.853 36.8292 27.2052 36.7177 26.4458C36.5916 25.587 36.4922 24.7297 36.7059 23.8775C36.8648 23.2419 37.0725 22.618 37.2638 21.9908C37.3542 21.6927 37.3125 21.5361 37.0425 21.3791C36.9061 21.2998 36.7519 21.2295 36.5981 21.2066C35.757 21.0784 34.8976 21.1487 34.0884 21.4119C33.8339 21.4944 33.7003 21.6589 33.6225 21.9214C33.3937 22.6958 33.1987 23.4889 32.8777 24.2253C31.5773 27.2066 30.2395 30.1723 28.9031 33.1377C28.6242 33.7569 28.2975 34.3545 27.983 34.9573C27.9033 35.1102 27.787 35.2447 27.6877 35.3881C27.608 35.2939 27.577 35.2292 27.5775 35.1645C27.5798 34.7834 27.5344 34.3911 27.607 34.0227C27.8301 32.9084 28.0768 31.7989 28.3467 30.695C28.567 29.7828 28.8234 28.8791 29.0677 27.973C29.1497 27.6697 29.1511 27.3861 28.9331 27.1311C28.567 26.7041 27.802 26.6103 27.3483 26.9394L27.1477 27.0528L27.1866 26.7294C27.2822 26.0361 27.3014 25.3452 27.1111 24.6622C26.8739 23.8109 26.2664 23.3211 25.3833 23.3483C24.9717 23.3609 24.5395 23.4312 24.1584 23.5812C22.5558 24.2094 21.3234 25.3217 20.2744 26.66C20.1771 26.7843 20.0566 26.8884 19.9195 26.9666C18.5634 27.7184 17.2031 28.4609 15.8433 29.2062L14.3297 30.0355C13.9238 29.6483 13.5548 29.2466 13.1363 28.9058C11.858 27.8633 10.5591 26.8466 9.27188 25.8158C8.13094 24.9022 7.02563 23.9506 6.18 22.7408C5.55094 21.8408 5.14547 20.8559 5.10657 19.7431C5.05735 18.3252 5.45954 17.0295 6.18141 15.8234C7.10485 14.2803 8.36438 13.0419 9.74907 11.9202C11.2139 10.7342 12.7983 9.72734 14.4403 8.80812C16.7377 7.52234 19.1006 6.38422 21.6342 5.63281C24.232 4.86219 26.8678 4.42109 29.5866 4.72859C30.6553 4.84953 31.6931 5.09422 32.6461 5.61688C33.3759 6.01672 33.9745 6.54031 34.253 7.35875C34.5277 8.16406 34.5192 8.98016 34.3289 9.79812C33.9422 11.4547 33.0352 12.8202 31.8938 14.0403C30.0216 16.0405 27.7378 17.4022 25.1667 18.3017C23.6884 18.8196 22.1503 19.1477 20.5894 19.2781C19.3102 19.3855 18.0577 19.272 16.8464 18.8272C16.0444 18.5323 15.3459 18.0814 14.7844 17.427C14.6841 17.3098 14.5556 17.1828 14.3686 17.2925C14.1853 17.4003 14.153 17.5747 14.2144 17.7514C14.317 18.0448 14.4117 18.3505 14.5716 18.613C14.9733 19.2716 15.5592 19.7492 16.2042 20.1589C17.4431 20.9469 18.8278 21.2117 20.2636 21.2731C22.4423 21.3673 24.5681 21.042 26.6639 20.4575C29.6559 19.6231 32.2575 18.1494 34.3439 15.8244C36.0811 13.8884 37.3219 11.7036 37.5877 9.06547C37.7175 7.77781 37.5792 6.51641 36.9764 5.34172C36.3225 4.06906 35.2828 3.12266 34.0397 2.47063C32.2294 1.52141 30.2756 0.96875 28.2591 0.96875H26.2388C23.7966 0.96875 21.4355 1.66859 19.1405 2.50344C17.4033 3.13578 15.6998 3.88203 14.0461 4.70797C10.4447 6.5075 7.09079 8.67734 4.33594 11.6609C2.96344 13.1473 1.80141 14.7875 1.13297 16.7187C0.931226 17.2953 0.75743 17.8813 0.612192 18.4747L0.571411 19.3231ZM13.6617 35.3558C13.5056 37.4459 12.5583 39.1405 11.01 40.513C10.1391 41.2845 9.14016 41.8339 7.97672 42.027C7.55485 42.0969 7.12313 42.1138 6.71391 41.9389C6.13032 41.6895 5.99954 41.1716 5.98829 40.6198C5.97094 39.7405 6.27891 38.9455 6.70125 38.1889C7.2525 37.2027 8.06063 36.4508 8.9236 35.7486C10.283 34.6419 11.7577 33.7053 13.268 32.8213L13.3819 32.7744C13.6153 33.6369 13.7264 34.4886 13.6617 35.3558ZM25.4545 26.2719C25.3444 26.9394 25.2066 27.6073 25.0116 28.2542C24.3375 30.4934 23.4717 32.6633 22.5356 34.8041C22.3627 35.2002 22.1109 35.5616 21.892 35.937C21.8548 35.9948 21.8102 36.0474 21.7594 36.0936C21.4884 36.3612 21.2316 36.3472 21.0947 35.997C20.9353 35.5902 20.8373 35.1547 20.753 34.7239C20.6963 34.4347 20.7098 34.1309 20.692 33.8347C20.7103 31.7281 21.353 29.8138 22.4433 28.0316C22.8928 27.2966 23.3822 26.5963 24.1298 26.1313C24.3624 25.9866 24.6141 25.8753 24.8775 25.8003C25.2759 25.6883 25.5206 25.8725 25.4545 26.2719ZM33.5002 36.5225L36.3919 33.1461C36.5123 34.4 34.3809 36.9031 33.5002 36.5225ZM42.7359 34.2505C42.5316 34.3677 42.3089 34.452 42.0994 34.5603C41.9077 34.6597 41.8444 34.5594 41.8387 34.3944C41.8359 34.2802 41.8506 34.1662 41.8823 34.0564C42.2728 32.6792 42.9914 31.5036 44.0606 30.5473L44.1356 30.5089C44.6442 31.9316 44.0564 33.4939 42.7359 34.2505Z" fill="#CB6699"/>
</svg>
