<svg width="60" height="60" viewBox="0 0 60 60" fill="none" xmlns="http://www.w3.org/2000/svg">
<path d="M59.5312 7.56656C59.5312 3.64641 56.3536 0.46875 52.4334 0.46875H7.56656C3.64641 0.46875 0.46875 3.64641 0.46875 7.56656V52.433C0.46875 56.3536 3.64641 59.5312 7.56656 59.5312H52.4334C56.3536 59.5312 59.5312 56.3536 59.5312 52.433V7.56656ZM27.1875 46.6594C27.1875 48.4439 25.6472 49.6875 23.8627 49.6875H11.0452C9.26062 49.6875 7.96875 48.4439 7.96875 46.6594V10.8891C7.96875 9.10406 9.26062 7.5 11.0452 7.5H23.8627C25.6472 7.5 27.1875 9.10406 27.1875 10.8891V46.6594ZM52.9688 15.5081V30.4547C52.9688 32.2392 51.5925 33.75 49.8075 33.75H36.9966C35.2116 33.75 33.75 32.2388 33.75 30.4547V10.7184C33.75 8.93344 35.2116 7.5 36.9966 7.5H49.8075C51.5925 7.5 52.9688 8.93344 52.9688 10.7184V15.5081Z" fill="#23719F"/>
</svg>
