<svg width="40" height="40" viewBox="0 0 40 40" fill="none" xmlns="http://www.w3.org/2000/svg">
<path d="M12.5794 39.8868C27.6748 39.8868 35.9291 24.5877 35.9291 11.3233C35.9291 10.8889 35.9291 10.4555 35.9057 10.0246C37.5123 8.60363 38.8991 6.84332 40.0001 4.82676C38.5032 5.63988 36.9154 6.17207 35.2882 6.40895C37.0007 5.15269 38.2826 3.17894 38.8941 0.854569C37.2829 2.02426 35.5201 2.84832 33.6816 3.29238C31.1391 -0.0157444 27.0973 -0.826369 23.8232 1.31738C20.5507 3.46113 18.8601 8.02363 19.6985 12.4477C13.1007 12.0436 6.95195 8.2302 2.78601 1.95957C0.604131 6.54395 1.71476 12.4136 5.31944 15.3627C4.02319 15.3089 2.75476 14.8768 1.62194 14.103V14.2311C1.62194 19.0039 4.36757 23.118 8.19069 24.0724C6.9951 24.4743 5.71081 24.5331 4.48351 24.2421C5.55757 28.334 8.63882 31.139 12.1507 31.2196C9.24288 34.0065 5.65288 35.5165 1.95788 35.5071C1.30351 35.5071 0.649131 35.4602 -0.000244141 35.3677C3.75226 38.3155 8.11851 39.8805 12.5791 39.8746" fill="white"/>
</svg>
