<svg width="40" height="40" viewBox="0 0 40 40" fill="none" xmlns="http://www.w3.org/2000/svg">
<path d="M12.5793 39.8868C27.6746 39.8868 35.929 24.5877 35.929 11.3233C35.929 10.8889 35.929 10.4555 35.9056 10.0246C37.5121 8.60363 38.899 6.84332 40 4.82676C38.5031 5.63988 36.9153 6.17207 35.2881 6.40895C37.0006 5.15269 38.2825 3.17894 38.894 0.854569C37.2828 2.02426 35.52 2.84832 33.6815 3.29238C31.139 -0.0157444 27.0971 -0.826369 23.8231 1.31738C20.5506 3.46113 18.86 8.02363 19.6984 12.4477C13.1006 12.0436 6.95182 8.2302 2.78588 1.95957C0.604009 6.54395 1.71463 12.4136 5.31932 15.3627C4.02307 15.3089 2.75463 14.8768 1.62182 14.103V14.2311C1.62182 19.0039 4.36745 23.118 8.19057 24.0724C6.99498 24.4743 5.71069 24.5331 4.48339 24.2421C5.55745 28.334 8.6387 31.139 12.1506 31.2196C9.24276 34.0065 5.65276 35.5165 1.95776 35.5071C1.30338 35.5071 0.649009 35.4602 -0.000366211 35.3677C3.75214 38.3155 8.11839 39.8805 12.579 39.8746" fill="#1DA1F2"/>
</svg>
